<svg xmlns="http://www.w3.org/2000/svg" viewBox="0 0 1440 400" preserveAspectRatio="xMidYMid slice">
  <rect width="1440" height="400" fill="#e8e0d5"/>
  <path d="M0,200 C180,160 360,240 540,200 C720,160 900,240 1080,200 C1260,160 1350,220 1440,200 L1440,400 L0,400 Z" fill="#d4c8b8" opacity="0.6"/>
  <path d="M0,250 C200,210 400,290 600,250 C800,210 1000,280 1200,250 C1320,230 1380,260 1440,250 L1440,400 L0,400 Z" fill="#c4b8a8" opacity="0.5"/>
  <path d="M0,300 C240,270 480,330 720,300 C960,270 1200,320 1440,300 L1440,400 L0,400 Z" fill="#b8aa98" opacity="0.4"/>
  <circle cx="200" cy="100" r="120" fill="#d4c8b8" opacity="0.2"/>
  <circle cx="1200" cy="80" r="160" fill="#d4c8b8" opacity="0.15"/>
  <circle cx="720" cy="50" r="80" fill="#ece8e0" opacity="0.2"/>
</svg>
